<svg version="1.1" id="Layer_1" xmlns="http://www.w3.org/2000/svg" xmlns:xlink="http://www.w3.org/1999/xlink" x="0px" y="0px"
	 width="100%" viewBox="0 0 1024 1024" enable-background="new 0 0 1024 1024" xml:space="preserve">
<path fill="#020201" opacity="1.000000" stroke="none" 
	d="
M478.000000,1025.000000 
	C318.666656,1025.000000 159.833328,1025.000000 1.000000,1025.000000 
	C1.000000,683.666687 1.000000,342.333344 1.000000,1.000000 
	C342.333344,1.000000 683.666687,1.000000 1025.000000,1.000000 
	C1025.000000,342.333344 1025.000000,683.666687 1025.000000,1025.000000 
	C842.833313,1025.000000 660.666687,1025.000000 478.000000,1025.000000 
M211.160187,755.400635 
	C236.768219,744.320618 261.917084,731.967834 288.113068,722.517456 
	C314.475037,713.007202 341.597961,705.175781 368.904419,698.835327 
	C396.071259,692.527100 423.739258,687.748169 451.448395,684.581421 
	C479.186951,681.411194 507.246155,679.863708 535.168518,679.816589 
	C563.254639,679.769165 591.477783,681.230469 619.396729,684.271545 
	C647.134338,687.292908 674.838867,691.901001 702.059204,698.028503 
	C729.412537,704.185791 756.517578,712.001221 783.054993,721.069702 
	C809.180908,729.997559 834.458191,741.408936 859.224854,751.375305 
	C859.433655,751.567871 858.845764,751.000732 858.231079,750.464294 
	C856.600037,749.040710 855.009827,747.563843 853.311768,746.224365 
	C817.234253,717.766846 777.043701,696.471985 734.706726,679.191467 
	C686.354858,659.455872 636.214722,645.763733 584.797119,636.639648 
	C542.424072,629.120422 499.773895,624.305237 456.746307,623.271851 
	C439.298676,622.852844 421.832611,623.202759 404.138977,623.202759 
	C446.702362,550.202332 489.590607,476.644684 532.771118,402.585785 
	C567.815857,461.253357 602.559875,519.417419 637.074097,577.196899 
	C616.678528,580.688721 596.333374,583.899902 576.101562,587.712463 
	C556.031067,591.494507 536.533508,597.442993 517.395020,604.517944 
	C641.087463,605.623169 747.699890,639.337646 814.552124,682.214783 
	C720.716614,527.125488 626.881104,372.036194 532.805664,216.550323 
	C531.579285,218.517120 530.699097,219.886536 529.859924,221.280594 
	C493.229095,282.131531 456.549286,342.953094 419.986267,403.844757 
	C360.901581,502.243683 301.875916,600.677979 242.870026,699.124146 
	C231.767242,717.648254 220.873138,736.297424 209.341766,755.074524 
	C209.330765,755.340088 209.319763,755.605713 209.308762,755.871338 
	C209.704559,755.801697 210.100372,755.732117 211.160187,755.400635 
z"/>
<path fill="#FDFDFD" opacity="1.000000" stroke="none" 
	d="
M209.882751,754.888916 
	C220.873138,736.297424 231.767242,717.648254 242.870026,699.124146 
	C301.875916,600.677979 360.901581,502.243683 419.986267,403.844757 
	C456.549286,342.953094 493.229095,282.131531 529.859924,221.280594 
	C530.699097,219.886536 531.579285,218.517120 532.805664,216.550323 
	C626.881104,372.036194 720.716614,527.125488 814.552124,682.214783 
	C747.699890,639.337646 641.087463,605.623169 517.395020,604.517944 
	C536.533508,597.442993 556.031067,591.494507 576.101562,587.712463 
	C596.333374,583.899902 616.678528,580.688721 637.074097,577.196899 
	C602.559875,519.417419 567.815857,461.253357 532.771118,402.585785 
	C489.590607,476.644684 446.702362,550.202332 404.138977,623.202759 
	C421.832611,623.202759 439.298676,622.852844 456.746307,623.271851 
	C499.773895,624.305237 542.424072,629.120422 584.797119,636.639648 
	C636.214722,645.763733 686.354858,659.455872 734.706726,679.191467 
	C777.043701,696.471985 817.234253,717.766846 853.311768,746.224365 
	C855.009827,747.563843 856.600037,749.040710 858.231079,750.464294 
	C858.845764,751.000732 859.433655,751.567871 859.224854,751.375305 
	C834.458191,741.408936 809.180908,729.997559 783.054993,721.069702 
	C756.517578,712.001221 729.412537,704.185791 702.059204,698.028503 
	C674.838867,691.901001 647.134338,687.292908 619.396729,684.271545 
	C591.477783,681.230469 563.254639,679.769165 535.168518,679.816589 
	C507.246155,679.863708 479.186951,681.411194 451.448395,684.581421 
	C423.739258,687.748169 396.071259,692.527100 368.904419,698.835327 
	C341.597961,705.175781 314.475037,713.007202 288.113068,722.517456 
	C261.917084,731.967834 236.768219,744.320618 210.686890,755.328552 
	C210.213608,755.256470 209.882767,754.888916 209.882751,754.888916 
z"/>
<path fill="#FDFDFD" opacity="1.000000" stroke="none" 
	d="
M210.354889,755.459473 
	C210.100372,755.732117 209.704559,755.801697 209.308762,755.871338 
	C209.319763,755.605713 209.330765,755.340088 209.612274,754.981689 
	C209.882767,754.888916 210.213608,755.256470 210.354889,755.459473 
z"/>
</svg>